<?xml version="1.0" encoding="UTF-8"?><svg id="Layer_2" xmlns="http://www.w3.org/2000/svg" viewBox="0 0 32 32"><g id="Layer_1-2"><rect width="32" height="32"/><g><path d="M6.11,9.79c1.07-1.83,2.53-3.26,4.38-4.29,1.84-1.03,3.86-1.54,6.06-1.54,2.51,0,4.75,.62,6.7,1.85,1.96,1.23,3.38,2.98,4.26,5.24h-4.65c-.61-1.24-1.46-2.17-2.55-2.78s-2.34-.92-3.77-.92c-1.56,0-2.95,.35-4.17,1.05-1.22,.7-2.18,1.71-2.87,3.02-.69,1.31-1.04,2.84-1.04,4.58s.35,3.27,1.04,4.58,1.65,2.33,2.87,3.04c1.22,.71,2.61,1.07,4.17,1.07,1.43,0,2.68-.31,3.77-.92s1.93-1.54,2.55-2.78h4.65c-.88,2.26-2.3,4.01-4.26,5.23-1.96,1.22-4.19,1.83-6.7,1.83-2.22,0-4.24-.51-6.08-1.55-1.83-1.03-3.29-2.46-4.36-4.29-1.07-1.83-1.61-3.9-1.61-6.21s.54-4.38,1.61-6.21Z" style="fill:#fff;"/><path d="M23.3,17.77c-.47-.47-.71-1.06-.71-1.76s.24-1.29,.71-1.77c.47-.47,1.06-.71,1.76-.71s1.26,.24,1.73,.71c.47,.48,.71,1.06,.71,1.77s-.24,1.29-.71,1.76-1.05,.71-1.73,.71-1.29-.24-1.76-.71Z" style="fill:#3cb5e5;"/></g></g></svg>