<svg xmlns="http://www.w3.org/2000/svg" width="24.615" height="24" viewBox="0 0 24.615 24"><path d="M4.359,0h15.9a4.355,4.355,0,0,1,4.359,4.359V19.641A4.355,4.355,0,0,1,20.256,24H4.359A4.355,4.355,0,0,1,0,19.641V4.359A4.355,4.355,0,0,1,4.359,0Z" fill="#300"/><path d="M56.487,68.222H52.641l-.786,2.429a.181.181,0,0,1-.2.145H49.715c-.114,0-.145-.062-.114-.186l3.329-9.583c.031-.1.062-.217.1-.341a3.611,3.611,0,0,0,.062-.672.1.1,0,0,1,.083-.114h2.678c.083,0,.124.031.134.083l3.773,10.648c.031.114,0,.165-.1.165H57.5a.156.156,0,0,1-.165-.114Zm-3.246-2.1h2.626c-.062-.217-.145-.476-.238-.744s-.186-.579-.279-.889-.2-.631-.3-.951-.2-.62-.279-.92-.155-.558-.227-.806h-.021a12.693,12.693,0,0,1-.351,1.334c-.155.5-.31,1.013-.476,1.53-.145.527-.3,1.013-.455,1.447Z" transform="translate(-44.532 -53.796)" fill="#ff9a00"/><path d="M158.766,54.495a1.279,1.279,0,0,1-.92-.362,1.343,1.343,0,0,1-.351-.951,1.216,1.216,0,0,1,.372-.92,1.324,1.324,0,0,1,.92-.362,1.238,1.238,0,0,1,.941.362,1.421,1.421,0,0,1-.021,1.871A1.216,1.216,0,0,1,158.766,54.495Zm-1.158,8.973v-7.96c0-.1.041-.145.134-.145h2.047c.093,0,.134.052.134.145v7.96c0,.114-.041.165-.134.165h-2.026A.145.145,0,0,1,157.609,63.468Z" transform="translate(-141.356 -46.617)" fill="#ff9a00"/></svg>