<svg xmlns="http://www.w3.org/2000/svg" width="24" height="28" viewBox="0 0 24 28"><g transform="translate(3 2)" fill="#fff" stroke="#1f2235" stroke-width="1"><rect width="18" height="21" stroke="none"/><rect x="0.5" y="0.5" width="17" height="20" fill="none"/></g><path d="M0,32,2.181,56.737,12,60l9.819-3.263,1.449-16.429L24,32Zm19.569,5-.3,2.956-7.206,3.081-.019.006h6.969l-.8,9.163L12.075,54,5.9,52.175l-.4-4.619H8.556l.2,2.394,3.287.831,3.419-.963.231-3.85L5.3,45.938v-.006l-.012.006-.225-2.894,7.006-2.919.406-.169H4.794L4.431,37Z" transform="translate(0 -32)" fill="#2271e6"/></svg>