<?xml version="1.0" encoding="utf-8"?>
<!-- Generator: Adobe Illustrator 25.3.1, SVG Export Plug-In . SVG Version: 6.00 Build 0)  -->
<svg version="1.1" id="Layer_1" xmlns="http://www.w3.org/2000/svg" xmlns:xlink="http://www.w3.org/1999/xlink" x="0px" y="0px"
	 viewBox="0 0 100 100" style="enable-background:new 0 0 100 100;" xml:space="preserve">
<style type="text/css">
	.st0{fill:#FFFFFF;}
	.st1{fill:#B2B2B2;}
	.st2{fill:none;stroke:#B2B2B2;stroke-width:2;stroke-miterlimit:10;}
</style>
<rect class="st0" width="100" height="100"/>
<path class="st1" d="M21.2,64.8l11.5-12.3c0.7-0.7,1.8-0.7,2.4,0l4.6,4.6c0.7,0.7,1.7,0.7,2.4,0L61,38.2c0.7-0.7,1.7-0.7,2.4,0
	l15.3,15.1c0.3,0.3,0.5,0.8,0.5,1.2v15.9c0,0.9-0.8,1.7-1.7,1.7h-55c-0.9,0-1.7-0.8-1.7-1.7V66C20.7,65.5,20.9,65.1,21.2,64.8z"/>
<path class="st1" d="M28.3,29.6c4.4-0.2,8.1,3.6,8.1,8c0,4.2-3.4,8-7.7,8c-4.4,0-7.8-4-7.7-8.2C21.1,33.3,24.2,29.8,28.3,29.6z"/>
<path class="st2" d="M16.6,21.1h67.2c2.7,0,4.9,2.2,4.9,4.9v50.2c0,2.7-2.2,4.9-4.9,4.9l-67.2-0.7c-2.7,0-4.8-2.2-4.8-4.9V26
	C11.7,23.3,13.9,21.1,16.6,21.1z"/>
</svg>
