<?xml version="1.0" encoding="utf-8"?>
<!-- Generator: Adobe Illustrator 25.3.1, SVG Export Plug-In . SVG Version: 6.00 Build 0)  -->
<svg version="1.1" id="Layer_1" xmlns="http://www.w3.org/2000/svg" xmlns:xlink="http://www.w3.org/1999/xlink" x="0px" y="0px"
	 viewBox="0 0 24.6 24" style="enable-background:new 0 0 24.6 24;" xml:space="preserve">
<style type="text/css">
	.st0{fill:#FFFFFF;}
</style>
<path class="st0" d="M8.2,19.3c0,0.1-0.1,0.2-0.3,0.2s-0.3-0.1-0.3-0.2s0.1-0.2,0.3-0.2C8.1,19.1,8.2,19.2,8.2,19.3z M6.7,19.1
	c0,0.1,0.1,0.2,0.2,0.2c0.1,0.1,0.2,0,0.3-0.1C7.2,19.1,7.1,19,7,19C6.9,18.9,6.8,19,6.7,19.1L6.7,19.1z M8.9,19
	c-0.1,0-0.2,0.1-0.2,0.2s0.1,0.2,0.3,0.1s0.2-0.1,0.2-0.2S9,19,8.9,19L8.9,19z M12.1,0C5.6-0.1,0.1,5.1,0,11.6c0,0.2,0,0.3,0,0.5
	C0,17.5,3.3,22.2,8.4,24c0.6,0.1,0.9-0.3,0.9-0.6s0-2,0-3c0,0-3.5,0.7-4.2-1.5c0,0-0.6-1.4-1.4-1.8c0,0-1.1-0.8,0.1-0.8
	c0.8,0.1,1.5,0.6,1.9,1.3c0.7,1.3,2.3,1.8,3.6,1.1c0,0,0,0,0.1,0c0.1-0.6,0.3-1.2,0.8-1.7c-2.8-0.3-5.6-0.7-5.6-5.5
	C4.5,10.4,5,9.3,5.8,8.6c-0.5-1.2-0.5-2.4,0-3.5c1-0.3,3.4,1.3,3.4,1.3c2-0.6,4.2-0.6,6.2,0c0,0,2.4-1.7,3.4-1.3
	c0.5,1.1,0.5,2.3,0.1,3.4c0.8,0.7,1.3,1.8,1.3,2.9c0,4.8-2.9,5.2-5.7,5.5c0.6,0.6,0.9,1.4,0.8,2.3c0,1.7,0,3.7,0,4.1
	c0,0.3,0.2,0.7,0.9,0.6c5.1-1.7,8.4-6.5,8.3-11.9c0.1-6.6-5.4-12-12.1-12C12.3,0,12.2,0,12.1,0z M4.8,17.1c-0.1,0-0.1,0.2,0,0.3
	s0.2,0.1,0.3,0s0.1-0.2,0-0.3S4.9,17.1,4.8,17.1z M4.3,16.7c0,0.1,0,0.1,0.1,0.2c0.1,0,0.2,0,0.2,0l0,0c0-0.1,0-0.1-0.1-0.2
	S4.3,16.7,4.3,16.7L4.3,16.7z M5.9,18.5c-0.1,0.1-0.1,0.2,0.1,0.3c0.1,0.1,0.3,0.1,0.3,0s0-0.2-0.1-0.3C6.1,18.4,6,18.4,5.9,18.5z
	 M5.3,17.8c-0.1,0-0.1,0.2,0,0.3s0.2,0.2,0.3,0.1c0.1-0.1,0.1-0.2,0-0.3C5.5,17.7,5.4,17.7,5.3,17.8L5.3,17.8z"/>
</svg>
