<svg xmlns="http://www.w3.org/2000/svg" xmlns:xlink="http://www.w3.org/1999/xlink" width="24" height="24" viewBox="0 0 24 24"><defs><clipPath id="a"><circle cx="12" cy="12" r="12"/></clipPath><linearGradient id="b" x1="0.045" y1="0.621" x2="0.369" y2="0.337" gradientUnits="objectBoundingBox"><stop offset="0" stop-color="#a52714" stop-opacity="0.6"/><stop offset="0.66" stop-color="#a52714" stop-opacity="0"/></linearGradient><linearGradient id="c" x1="0.839" y1="0.878" x2="0.363" y2="0.663" gradientUnits="objectBoundingBox"><stop offset="0" stop-color="#055524" stop-opacity="0.4"/><stop offset="0.33" stop-color="#055524" stop-opacity="0"/></linearGradient><clipPath id="d"><path d="M8,46.385H19.5l5.339-5.339v-4H15.326L8,24.48Z" transform="translate(-8 -24.48)"/></clipPath><linearGradient id="e" x1="0.327" y1="-0.048" x2="0.486" y2="0.454" gradientUnits="objectBoundingBox"><stop offset="0" stop-color="#ea6100" stop-opacity="0.302"/><stop offset="0.66" stop-color="#ea6100" stop-opacity="0"/></linearGradient><clipPath id="g"><path d="M92.351,56l4.758,8.239L91.77,73.576h12.665V56Z" transform="translate(-91.77 -56)"/></clipPath><radialGradient id="j" cx="-0.048" cy="-0.002" r="4.013" gradientTransform="translate(5.348) scale(0.267 1)" gradientUnits="objectBoundingBox"><stop offset="0" stop-color="#3e2723" stop-opacity="0.2"/><stop offset="1" stop-color="#3e2723" stop-opacity="0"/></radialGradient><clipPath id="l"><path d="M21.97,8v5.539l5.409,9.291,4.757-8.239H44.219V8Z" transform="translate(-21.97 -8)"/></clipPath><radialGradient id="o" cx="-0.001" cy="0.001" r="1.155" gradientTransform="translate(-1.81) scale(1.18 1)" xlink:href="#j"/><radialGradient id="q" cx="0.102" cy="-0.122" r="1.124" gradientTransform="translate(-15.156) scale(2.014 1)" gradientUnits="objectBoundingBox"><stop offset="0" stop-color="#263238" stop-opacity="0.2"/><stop offset="1" stop-color="#263238" stop-opacity="0"/></radialGradient></defs><g clip-path="url(#a)"><path d="M21.97,8V22.83h5.41l4.755-8.239H44.219V8Z" transform="translate(-20.052 -8)" fill="#db4437"/><path d="M21.97,8V22.83h5.41l4.755-8.239H44.219V8Z" transform="translate(-20.052 -8)" fill="url(#b)"/><path d="M27.448,56.679,21.98,47.3l-.08.137,5.429,9.31Z" transform="translate(-19.991 -41.903)" fill="rgba(62,39,35,0.15)"/><path d="M8,46.385H19.5l5.339-5.339v-4H15.326L8,24.48Z" transform="translate(-8 -22.217)" fill="#0f9d58"/><path d="M8,46.385H19.5l5.339-5.339v-4H15.326L8,24.48Z" transform="translate(-8 -22.217)" fill="url(#c)"/><path d="M95.957,116.886l-.114-.066-5.273,9.221h.158l5.232-9.151Z" transform="translate(-79.232 -101.877)" fill="rgba(38,50,56,0.15)"/><g transform="translate(0 2.263)" clip-path="url(#d)"><path d="M92.351,56l4.758,8.239L91.77,73.576h12.665V56Z" transform="translate(-80.267 -51.672)" fill="#ffcd40"/><path d="M92.351,56l4.758,8.239L91.77,73.576h12.665V56Z" transform="translate(-80.267 -51.672)" fill="url(#e)"/></g><path d="M92.351,56l4.758,8.239L91.77,73.576h12.665V56Z" transform="translate(-80.267 -49.409)" fill="#ffcd40"/><path d="M92.351,56l4.758,8.239L91.77,73.576h12.665V56Z" transform="translate(-80.267 -49.409)" fill="url(#e)"/><g transform="translate(11.503 6.591)" clip-path="url(#g)"><path d="M21.97,8V22.83h5.41l4.755-8.239H44.219V8Z" transform="translate(-31.555 -14.591)" fill="#db4437"/><path d="M21.97,8V22.83h5.41l4.755-8.239H44.219V8Z" transform="translate(-31.555 -14.591)" fill="url(#b)"/></g></g><g clip-path="url(#a)"><path d="M96,56v2.877L106.766,56Z" transform="translate(-83.916 -49.409)" fill="url(#j)"/></g><g clip-path="url(#a)"><g transform="translate(1.918)" clip-path="url(#l)"><path d="M8,46.385H19.5l5.339-5.339v-4H15.326L8,24.48Z" transform="translate(-9.918 -22.217)" fill="#0f9d58"/><path d="M8,46.385H19.5l5.339-5.339v-4H15.326L8,24.48Z" transform="translate(-9.918 -22.217)" fill="url(#c)"/></g></g><g clip-path="url(#a)"><path d="M21.97,48.45l7.861,7.86-2.452,1.416Z" transform="translate(-20.052 -42.896)" fill="url(#o)"/></g><g clip-path="url(#a)"><path d="M91.83,116.438,94.708,105.7l2.452,1.414Z" transform="translate(-80.319 -92.284)" fill="url(#q)"/></g><g clip-path="url(#a)"><circle cx="5.5" cy="5.5" r="5.5" transform="translate(7 7)" fill="#f1f1f1"/><circle cx="4" cy="4" r="4" transform="translate(8 8)" fill="#4285f4"/><path d="M61.493,55A5.491,5.491,0,0,0,56,60.493v.137a5.491,5.491,0,0,1,5.493-5.493H73.576V55Z" transform="translate(-49.409 -48.546)" fill="rgba(62,39,35,0.2)"/><path d="M24.835,37.047a5.483,5.483,0,0,1-9.5,0h-.005L8,24.48v.137l7.333,12.567a5.483,5.483,0,0,0,9.5,0h.007v-.137h-.008Z" transform="translate(-8 -22.217)" fill="rgba(255,255,255,0.1)"/><path d="M96.569,56c-.023,0-.045,0-.069,0a5.489,5.489,0,0,1,0,10.977c.023,0,.045,0,.069,0a5.493,5.493,0,1,0,0-10.985Z" transform="translate(-84.348 -49.409)" fill="#3e2723" opacity="0.1"/><path d="M97.157,89.651a5.474,5.474,0,0,0,.481-4.4,5.432,5.432,0,0,1-.531,4.214l0,.005L91.77,98.807h.159Z" transform="translate(-80.267 -74.642)" fill="rgba(255,255,255,0.2)"/><path d="M20.084,8.137A12.085,12.085,0,0,1,32.168,20.152c0-.023,0-.045,0-.069A12.085,12.085,0,0,0,8,20.084c0,.023,0,.045,0,.069A12.083,12.083,0,0,1,20.084,8.137Z" transform="translate(-8 -8)" fill="rgba(255,255,255,0.2)"/><path d="M20.084,107.515A12.085,12.085,0,0,0,32.168,95.5c0,.023,0,.045,0,.069A12.085,12.085,0,0,1,8,95.569c0-.023,0-.045,0-.069a12.084,12.084,0,0,0,12.084,12.015Z" transform="translate(-8 -83.485)" fill="rgba(62,39,35,0.15)"/></g></svg>