<svg xmlns="http://www.w3.org/2000/svg" width="24" height="24" viewBox="0 0 24 24"><path d="M0,32V56H24V32ZM13.061,50.718a3.067,3.067,0,0,1-3.37,3.4,3.5,3.5,0,0,1-3.386-2.062l1.838-1.109c.354.627.675,1.157,1.452,1.157.739,0,1.211-.289,1.211-1.42V43.02h2.255v7.7Zm5.336,3.4a4.328,4.328,0,0,1-4.109-2.3l1.837-1.061a2.461,2.461,0,0,0,2.223,1.371c.932,0,1.532-.466,1.532-1.114,0-.771-.611-1.045-1.645-1.5l-.562-.241c-1.629-.691-2.705-1.564-2.705-3.4a3.013,3.013,0,0,1,3.3-2.979,3.322,3.322,0,0,1,3.2,1.805l-1.757,1.125a1.534,1.534,0,0,0-1.452-.964.979.979,0,0,0-1.077.964c0,.675.418.948,1.387,1.371l.563.241c1.918.82,2.995,1.661,2.995,3.546,0,2.025-1.6,3.139-3.734,3.139Z" transform="translate(0 -32)" fill="#e6e612"/></svg>