<svg xmlns="http://www.w3.org/2000/svg" width="24.615" height="24" viewBox="0 0 24.615 24"><path d="M4.359,0h15.9a4.355,4.355,0,0,1,4.359,4.359V19.641A4.355,4.355,0,0,1,20.256,24H4.359A4.355,4.355,0,0,1,0,19.641V4.359A4.355,4.355,0,0,1,4.359,0Z" fill="#001e36"/><path d="M54,70.514V59.679c0-.074.032-.116.105-.116.179,0,.347,0,.59-.011s.516-.011.8-.021.59-.011.916-.021.642-.011.958-.011a6.191,6.191,0,0,1,2.169.326,3.76,3.76,0,0,1,1.411.863,3.353,3.353,0,0,1,.769,1.2,4.03,4.03,0,0,1,.242,1.369,3.765,3.765,0,0,1-.632,2.243,3.607,3.607,0,0,1-1.7,1.285,6.824,6.824,0,0,1-2.369.358c-.253,0-.421,0-.526-.011s-.253-.011-.453-.011V70.5a.131.131,0,0,1-.116.147H54.126C54.042,70.651,54,70.609,54,70.514ZM56.3,61.6v3.538c.147.011.284.021.411.021h.558a3.933,3.933,0,0,0,1.211-.19,1.811,1.811,0,0,0,.863-.558,1.627,1.627,0,0,0,.326-1.085,1.733,1.733,0,0,0-.242-.937,1.527,1.527,0,0,0-.737-.6,3.09,3.09,0,0,0-1.243-.211c-.274,0-.516,0-.716.011a2.411,2.411,0,0,0-.432.011Z" transform="translate(-48.529 -53.532)" fill="#31a8ff"/><path d="M145.732,86.68a3.727,3.727,0,0,0-1.011-.358,5.551,5.551,0,0,0-1.179-.137,2.12,2.12,0,0,0-.632.074.541.541,0,0,0-.326.211.558.558,0,0,0-.084.284.468.468,0,0,0,.105.274,1.188,1.188,0,0,0,.358.284c.242.126.495.242.748.347a7.626,7.626,0,0,1,1.622.769,2.45,2.45,0,0,1,.832.874,2.273,2.273,0,0,1,.242,1.085,2.45,2.45,0,0,1-.411,1.4,2.639,2.639,0,0,1-1.179.937,4.825,4.825,0,0,1-1.906.337,7.253,7.253,0,0,1-1.432-.137,4.247,4.247,0,0,1-1.074-.337.207.207,0,0,1-.116-.2V90.555a.114.114,0,0,1,.042-.095.08.08,0,0,1,.095.011,4.508,4.508,0,0,0,1.306.516,4.9,4.9,0,0,0,1.243.158,2.01,2.01,0,0,0,.874-.147.489.489,0,0,0,.284-.442.558.558,0,0,0-.253-.421,4.466,4.466,0,0,0-1.032-.495,6.443,6.443,0,0,1-1.5-.758,2.726,2.726,0,0,1-.8-.9,2.259,2.259,0,0,1-.242-1.074,2.477,2.477,0,0,1,.358-1.274,2.6,2.6,0,0,1,1.106-.969,4.083,4.083,0,0,1,1.864-.369,9.078,9.078,0,0,1,1.306.095,3.705,3.705,0,0,1,.906.242.185.185,0,0,1,.105.095.529.529,0,0,1,.021.126v1.716a.13.13,0,0,1-.053.105A.281.281,0,0,1,145.732,86.68Z" transform="translate(-126.021 -75.781)" fill="#31a8ff"/></svg>