<svg id="Layer_1" data-name="Layer 1" xmlns="http://www.w3.org/2000/svg" viewBox="0 0 747.8 216.8"><path d="M200.9,84c0,48.6-37.2,79.2-95.7,79.2H74.9v51.6H4.1V4.78H105.2C163.7,4.78,200.9,35.38,200.9,84Zm-71.4,0c0-15.3-9.3-24.6-28.8-24.6H74.9v49.2h25.8C120.2,108.58,129.5,99.28,129.5,84Z" transform="translate(-3.1 -3.78)" style="fill:none;stroke:#000;stroke-miterlimit:10;stroke-width:2px"/><path d="M219.2,120.28V4.78H290v113.4c0,32.1,12.3,44.1,32.1,44.1s32.1-12,32.1-44.1V4.78h69.6v115.5c0,63-37.8,99.3-102.3,99.3S219.2,183.28,219.2,120.28Z" transform="translate(-3.1 -3.78)" style="fill:none;stroke:#000;stroke-miterlimit:10;stroke-width:2px"/><path d="M586.1,214.78l-36.3-56.1-35.4,56.1H433.7l75.9-105.9L436.4,4.78h79.5l35.7,52.8,34.8-52.8h76.2l-72.9,101.4,77.4,108.6Z" transform="translate(-3.1 -3.78)" style="fill:none;stroke:#000;stroke-miterlimit:10;stroke-width:2px"/><path d="M670.7,178.78c0-23.1,17.1-38.4,39.6-38.4s39.6,15.3,39.6,38.4c0,22.8-17.1,39-39.6,39S670.7,201.58,670.7,178.78Z" transform="translate(-3.1 -3.78)" style="fill:none;stroke:#000;stroke-miterlimit:10;stroke-width:2px"/></svg>