<svg xmlns="http://www.w3.org/2000/svg" width="27.427" height="24" viewBox="0 0 27.427 24"><path d="M22.4,39.79q-.434-.145-.868-.273c.048-.2.091-.4.134-.595.659-3.193.225-5.759-1.237-6.605-1.409-.809-3.707.032-6.032,2.057-.23.2-.455.407-.67.616-.145-.139-.295-.279-.445-.412C10.848,32.414,8.4,31.5,6.942,32.355c-1.4.814-1.821,3.23-1.232,6.251.059.3.123.595.2.895-.343.1-.68.2-1,.316C2.052,40.808,0,42.372,0,43.99c0,1.671,2.186,3.348,5.159,4.366.241.08.482.161.729.23-.08.321-.15.637-.214.964-.562,2.973-.123,5.33,1.28,6.139,1.446.836,3.878-.021,6.246-2.095.187-.166.375-.337.562-.52.236.23.482.45.729.664,2.293,1.971,4.559,2.769,5.957,1.961,1.446-.836,1.918-3.369,1.307-6.455q-.072-.354-.161-.723c.171-.048.337-.1.5-.155,3.091-1.023,5.33-2.678,5.33-4.377C27.427,42.367,25.317,40.792,22.4,39.79Zm-7.248-4.548c1.993-1.736,3.852-2.416,4.7-1.928.905.52,1.254,2.62.686,5.378-.037.182-.075.359-.123.536a27.423,27.423,0,0,0-3.605-.568,27.065,27.065,0,0,0-2.282-2.844C14.737,35.617,14.94,35.429,15.155,35.242ZM8.957,46.77c.273.466.552.932.846,1.387a24.257,24.257,0,0,1-2.486-.4,25.023,25.023,0,0,1,.873-2.384c.246.471.5.937.766,1.4ZM7.334,40.326c.771-.171,1.591-.311,2.443-.418-.284.445-.562.9-.825,1.361s-.52.921-.761,1.393c-.337-.8-.621-1.58-.857-2.336ZM8.8,44.017c.354-.739.739-1.462,1.146-2.175s.846-1.4,1.307-2.084c.8-.059,1.623-.091,2.459-.091s1.661.032,2.459.091q.683,1.012,1.3,2.073T18.637,44Q18.1,45.1,17.479,46.181c-.407.712-.841,1.4-1.3,2.089-.8.059-1.628.086-2.47.086s-1.655-.027-2.443-.075q-.7-1.02-1.318-2.089c-.412-.712-.793-1.436-1.152-2.175Zm9.674,2.743c.273-.471.53-.948.782-1.43a24.867,24.867,0,0,1,.905,2.373,23.529,23.529,0,0,1-2.518.429c.289-.45.562-.911.83-1.371Zm.771-4.1c-.252-.471-.509-.943-.777-1.4s-.536-.905-.82-1.35a24.652,24.652,0,0,1,2.459.429A23.708,23.708,0,0,1,19.247,42.661Zm-5.523-6.026a23.523,23.523,0,0,1,1.586,1.918c-1.061-.048-2.127-.048-3.187,0C12.648,37.862,13.189,37.219,13.724,36.635ZM7.51,33.351c.9-.525,2.9.225,5,2.089.134.118.268.246.407.375a27.216,27.216,0,0,0-2.3,2.844,28.238,28.238,0,0,0-3.6.557c-.07-.273-.129-.552-.187-.83-.5-2.593-.171-4.548.675-5.035ZM6.2,47.472c-.225-.064-.445-.134-.664-.209a10.926,10.926,0,0,1-3.375-1.671,2.4,2.4,0,0,1-1.007-1.6c0-.98,1.693-2.234,4.135-3.086.305-.107.616-.2.927-.295a28.485,28.485,0,0,0,1.312,3.407A29.282,29.282,0,0,0,6.2,47.472Zm6.246,5.25a9.8,9.8,0,0,1-3.021,1.891,2.371,2.371,0,0,1-1.891.07c-.852-.493-1.205-2.384-.723-4.928.059-.3.123-.6.2-.895a26.8,26.8,0,0,0,3.637.525,28.269,28.269,0,0,0,2.314,2.861c-.171.166-.343.327-.514.477Zm1.312-1.3c-.546-.589-1.093-1.243-1.623-1.945.514.021,1.045.032,1.58.032.552,0,1.093-.011,1.628-.037A23.1,23.1,0,0,1,13.756,51.42Zm7,1.607a2.381,2.381,0,0,1-.884,1.677c-.852.493-2.668-.15-4.628-1.832-.225-.193-.45-.4-.68-.616a26.5,26.5,0,0,0,2.261-2.871,26.407,26.407,0,0,0,3.653-.562c.054.22.1.439.145.654a9.765,9.765,0,0,1,.134,3.552Zm.975-5.759c-.15.048-.3.1-.455.139a27.213,27.213,0,0,0-1.366-3.418,27.077,27.077,0,0,0,1.312-3.369c.279.08.546.166.8.252,2.5.857,4.248,2.132,4.248,3.107C26.275,45.029,24.406,46.384,21.733,47.268Zm-8.019-.8a2.453,2.453,0,1,0-2.453-2.453,2.453,2.453,0,0,0,2.453,2.453Z" transform="translate(0 -32.012)" fill="#18c9ee"/></svg>