<svg xmlns="http://www.w3.org/2000/svg" width="24" height="18.002" viewBox="0 0 24 18.002"><path d="M11.323,29.614C11.311,29.636,11.3,29.654,11.323,29.614Zm9.342-3.263a4.919,4.919,0,0,0-2.175.506A4.619,4.619,0,0,1,18,25.729a3.013,3.013,0,0,1-.041-.949,7.989,7.989,0,0,1,.285-1.02c0-.041-.052-.248-.536-.251s-.9.094-.948.221a4.606,4.606,0,0,0-.2.716A17.376,17.376,0,0,1,15.1,27.27a2.912,2.912,0,0,1-.334-.825,3.013,3.013,0,0,1-.041-.949,7.99,7.99,0,0,1,.285-1.02c0-.041-.053-.248-.536-.251s-.9.094-.949.221-.1.428-.2.716-1.271,2.9-1.578,3.578c-.158.345-.293.623-.39.81-.015.03-.026.049-.034.064.011-.019.019-.038.019-.03-.083.161-.131.251-.131.251v0c-.064.12-.135.229-.169.229a1.556,1.556,0,0,1,.011-.746c.176-.908.593-2.318.589-2.366,0-.026.079-.27-.274-.4a.441.441,0,0,0-.5.083c-.03,0-.053.075-.053.075s.379-1.59-.727-1.59A3.3,3.3,0,0,0,7.97,26.565c-.3.161-.938.51-1.613.881l-.776.428c-.019-.019-.034-.038-.053-.056-1.342-1.433-3.82-2.445-3.715-4.369.038-.7.281-2.543,4.765-4.778,3.675-1.83,6.613-1.328,7.119-.21.728,1.594-1.571,4.56-5.387,4.988A2.873,2.873,0,0,1,5.9,22.837c-.2-.221-.229-.233-.3-.191-.124.068-.045.263,0,.379a2.26,2.26,0,0,0,1.38,1.084,7.307,7.307,0,0,0,4.469-.443c2.317-.893,4.12-3.379,3.591-5.46-.539-2.115-4.046-2.809-7.362-1.631a16.681,16.681,0,0,0-5.65,3.24c-1.826,1.71-2.118,3.2-2,3.821.427,2.209,3.471,3.649,4.69,4.714l-.169.094c-.611.3-2.932,1.519-3.513,2.8-.656,1.455.109,2.5.611,2.64A3.744,3.744,0,0,0,5.68,32.25a4.06,4.06,0,0,0,.36-3.731c0-.011-.011-.019-.015-.03.158-.094.319-.188.48-.281.311-.184.615-.353.881-.5a5.825,5.825,0,0,0-.315,1.6,3.32,3.32,0,0,0,.716,2.314.787.787,0,0,0,.577.188c.518,0,.75-.428,1.008-.938.319-.623.6-1.346.6-1.346s-.353,1.958.611,1.958c.352,0,.7-.454.863-.686v0s.008-.015.026-.045c.037-.056.056-.09.056-.09v-.011c.143-.244.454-.8.922-1.725.608-1.193,1.188-2.681,1.188-2.681a7.547,7.547,0,0,0,.233.968,9.058,9.058,0,0,0,.5,1.125c-.143.2-.229.308-.229.308a.012.012,0,0,0,0,.007c-.113.15-.24.311-.371.469a13.237,13.237,0,0,0-1.125,1.41.383.383,0,0,0,.105.514.912.912,0,0,0,.588.094,2.6,2.6,0,0,0,.881-.2,3.082,3.082,0,0,0,.757-.4,1.693,1.693,0,0,0,.728-1.493,3.106,3.106,0,0,0-.274-1.058c.041-.06.086-.124.128-.188a19.935,19.935,0,0,0,1.316-2.273,7.547,7.547,0,0,0,.233.968,6.614,6.614,0,0,0,.427.964,4.122,4.122,0,0,0-1.278,1.654c-.278.8-.06,1.159.349,1.241a1.258,1.258,0,0,0,.641-.131,2.98,2.98,0,0,0,.81-.416,1.812,1.812,0,0,0,.892-1.485,2.79,2.79,0,0,0-.2-.878,4.577,4.577,0,0,1,2.328-.27c2.088.244,2.5,1.549,2.418,2.093a1.386,1.386,0,0,1-.664.938c-.146.09-.191.124-.18.191.019.1.086.094.21.071A1.629,1.629,0,0,0,24,29.017c.06-1.275-1.166-2.678-3.338-2.666ZM4.571,31.778c-.69.754-1.657,1.039-2.073.8-.446-.26-.27-1.369.581-2.172a11.111,11.111,0,0,1,1.627-1.215c.1-.06.248-.15.428-.259.03-.019.045-.026.045-.026.034-.023.071-.041.109-.064a2.993,2.993,0,0,1-.716,2.936ZM9.609,28.35c-.24.589-.746,2.089-1.053,2.01-.263-.068-.424-1.211-.053-2.336a5.172,5.172,0,0,1,.821-1.5c.378-.424.795-.559.892-.39a7.6,7.6,0,0,1-.608,2.22Zm4.163,1.988c-.1.053-.2.086-.24.06s.041-.09.041-.09.521-.559.728-.814c.12-.15.259-.326.408-.521,0,.019,0,.038,0,.06a1.739,1.739,0,0,1-.942,1.305Zm3.209-.731c-.075-.053-.064-.229.188-.776a2.915,2.915,0,0,1,.713-.919,1.357,1.357,0,0,1,.071.405,1.322,1.322,0,0,1-.971,1.29Z" transform="translate(-0.004 -16.004)" fill="#d92183"/></svg>