<svg xmlns="http://www.w3.org/2000/svg" width="24.139" height="24" viewBox="0 0 24.139 24"><g transform="translate(0 0)"><path d="M23.129,3.19,18.158.81a1.509,1.509,0,0,0-1.715.29L.172,15.854a1,1,0,0,0,0,1.478l1.329,1.2a1.009,1.009,0,0,0,1.284.057l19.6-14.783a1,1,0,0,1,1.6.791V4.541A1.5,1.5,0,0,0,23.129,3.19Z" transform="translate(0.156 -0.662)" fill="#0065a9"/><path d="M23.129,77.46l-4.971,2.38a1.509,1.509,0,0,1-1.715-.29L.172,64.8a1,1,0,0,1,0-1.478l1.329-1.2a1.009,1.009,0,0,1,1.284-.057l19.6,14.783a1,1,0,0,0,1.6-.791v.057A1.5,1.5,0,0,1,23.129,77.46Z" transform="translate(0.156 -55.988)" fill="#007acc"/><path d="M177.745,24.511A1.55,1.55,0,0,1,176,24.219a.9.9,0,0,0,1.534-.625V1.725A.9.9,0,0,0,176,1.1a1.55,1.55,0,0,1,1.745-.292L182.8,3.2a1.506,1.506,0,0,1,.869,1.359V20.762a1.506,1.506,0,0,1-.869,1.359Z" transform="translate(-159.532 -0.66)" fill="#1f9cf0"/></g></svg>