<svg xmlns="http://www.w3.org/2000/svg" width="24.615" height="24" viewBox="0 0 24.615 24"><path d="M4.359,0h15.9a4.355,4.355,0,0,1,4.359,4.359V19.641A4.355,4.355,0,0,1,20.256,24H4.359A4.355,4.355,0,0,1,0,19.641V4.359A4.355,4.355,0,0,1,4.359,0Z" fill="#470137"/><path d="M44.505,60.157l-3.138,5.178,3.347,5.492a.18.18,0,0,1,.021.126c-.01.042-.052.01-.115.021h-2.4c-.167,0-.282-.01-.356-.115-.22-.439-.45-.868-.669-1.308s-.46-.868-.711-1.318-.5-.9-.753-1.36h-.021c-.22.45-.46.9-.7,1.349s-.481.9-.711,1.339-.481.889-.722,1.318c-.042.1-.126.115-.241.115h-2.3c-.042,0-.073.021-.073-.031a.145.145,0,0,1,.021-.115l3.253-5.335-3.17-5.366c-.031-.042-.042-.084-.021-.1a.121.121,0,0,1,.1-.042h2.375a.617.617,0,0,1,.146.021.3.3,0,0,1,.1.094c.2.45.429.9.669,1.349s.492.889.753,1.329.481.879.7,1.329h.021c.22-.46.45-.91.68-1.349s.471-.879.711-1.318.471-.889.7-1.318a.178.178,0,0,1,.063-.1.2.2,0,0,1,.136-.021h2.207a.1.1,0,0,1,.115.073c.01.01-.01.052-.031.073Z" transform="translate(-31.304 -53.946)" fill="#ff61f6"/><path d="M134.7,63.389a5.2,5.2,0,0,1-2.249-.471,3.647,3.647,0,0,1-1.58-1.423,4.526,4.526,0,0,1-.575-2.385,4.3,4.3,0,0,1,.575-2.207,4.344,4.344,0,0,1,1.663-1.621,5.351,5.351,0,0,1,2.647-.607,1.868,1.868,0,0,1,.22.01c.094.01.2.01.324.021V51.4c0-.073.031-.115.1-.115h2.124a.094.094,0,0,1,.1.073v9.98c0,.188.01.4.021.628s.031.429.042.607a.17.17,0,0,1-.1.167,7.989,7.989,0,0,1-1.705.5A9.227,9.227,0,0,1,134.7,63.389Zm1.025-2.092v-4.6a2.676,2.676,0,0,0-.282-.052c-.115-.01-.23-.021-.345-.021a2.579,2.579,0,0,0-1.182.272,2.345,2.345,0,0,0-.889.774A2.319,2.319,0,0,0,132.682,59a2.915,2.915,0,0,0,.178,1.077,2.045,2.045,0,0,0,.471.743,1.807,1.807,0,0,0,.711.418,2.738,2.738,0,0,0,.868.136c.157,0,.3-.01.439-.021A.915.915,0,0,0,135.726,61.3Z" transform="translate(-117.157 -46.127)" fill="#ff61f6"/></svg>